ModelForces
version=1
nRows=4
nColumns=155
inDegrees=no

This file contains the forces exerted on a model during a simulation.

A force is a generalized force, meaning that it can be either a force (N) or a torque (Nm).

Units are S.I. units (second, meters, Newtons, ...)
Angles are in degrees.

endheader
time	glut_med1_r	glut_med2_r	glut_med3_r	glut_min1_r	glut_min2_r	glut_min3_r	semimem_r	semiten_r	bifemlh_r	bifemsh_r	sar_r	add_long_r	add_brev_r	add_mag1_r	add_mag2_r	add_mag3_r	tfl_r	pect_r	grac_r	glut_max1_r	glut_max2_r	glut_max3_r	iliacus_r	psoas_r	quad_fem_r	gem_r	peri_r	rect_fem_r	vas_med_r	vas_int_r	vas_lat_r	med_gas_r	lat_gas_r	soleus_r	tib_post_r	flex_dig_r	flex_hal_r	tib_ant_r	per_brev_r	per_long_r	per_tert_r	ext_dig_r	ext_hal_r	glut_med1_l	glut_med2_l	glut_med3_l	glut_min1_l	glut_min2_l	glut_min3_l	semimem_l	semiten_l	bifemlh_l	bifemsh_l	sar_l	add_long_l	add_brev_l	add_mag1_l	add_mag2_l	add_mag3_l	tfl_l	pect_l	grac_l	glut_max1_l	glut_max2_l	glut_max3_l	iliacus_l	psoas_l	quad_fem_l	gem_l	peri_l	rect_fem_l	vas_med_l	vas_int_l	vas_lat_l	med_gas_l	lat_gas_l	soleus_l	tib_post_l	flex_dig_l	flex_hal_l	tib_ant_l	per_brev_l	per_long_l	per_tert_l	ext_dig_l	ext_hal_l	ercspn_r	ercspn_l	intobl_r	intobl_l	extobl_r	extobl_l	femur_lat_meniscii_r.femur_lat_r.force.X	femur_lat_meniscii_r.femur_lat_r.force.Y	femur_lat_meniscii_r.femur_lat_r.force.Z	femur_lat_meniscii_r.femur_lat_r.torque.X	femur_lat_meniscii_r.femur_lat_r.torque.Y	femur_lat_meniscii_r.femur_lat_r.torque.Z	femur_lat_meniscii_r.meniscus_lat_r.force.X	femur_lat_meniscii_r.meniscus_lat_r.force.Y	femur_lat_meniscii_r.meniscus_lat_r.force.Z	femur_lat_meniscii_r.meniscus_lat_r.torque.X	femur_lat_meniscii_r.meniscus_lat_r.torque.Y	femur_lat_meniscii_r.meniscus_lat_r.torque.Z	femur_med_meniscii_r.femur_med_r.force.X	femur_med_meniscii_r.femur_med_r.force.Y	femur_med_meniscii_r.femur_med_r.force.Z	femur_med_meniscii_r.femur_med_r.torque.X	femur_med_meniscii_r.femur_med_r.torque.Y	femur_med_meniscii_r.femur_med_r.torque.Z	femur_med_meniscii_r.meniscus_med_r.force.X	femur_med_meniscii_r.meniscus_med_r.force.Y	femur_med_meniscii_r.meniscus_med_r.force.Z	femur_med_meniscii_r.meniscus_med_r.torque.X	femur_med_meniscii_r.meniscus_med_r.torque.Y	femur_med_meniscii_r.meniscus_med_r.torque.Z	femur_med_tibia_r.tibia_upper_r.force.X	femur_med_tibia_r.tibia_upper_r.force.Y	femur_med_tibia_r.tibia_upper_r.force.Z	femur_med_tibia_r.tibia_upper_r.torque.X	femur_med_tibia_r.tibia_upper_r.torque.Y	femur_med_tibia_r.tibia_upper_r.torque.Z	femur_med_tibia_r.femur_med_r.force.X	femur_med_tibia_r.femur_med_r.force.Y	femur_med_tibia_r.femur_med_r.force.Z	femur_med_tibia_r.femur_med_r.torque.X	femur_med_tibia_r.femur_med_r.torque.Y	femur_med_tibia_r.femur_med_r.torque.Z	femur_lat_tibia_r.tibia_upper_r.force.X	femur_lat_tibia_r.tibia_upper_r.force.Y	femur_lat_tibia_r.tibia_upper_r.force.Z	femur_lat_tibia_r.tibia_upper_r.torque.X	femur_lat_tibia_r.tibia_upper_r.torque.Y	femur_lat_tibia_r.tibia_upper_r.torque.Z	femur_lat_tibia_r.femur_lat_r.force.X	femur_lat_tibia_r.femur_lat_r.force.Y	femur_lat_tibia_r.femur_lat_r.force.Z	femur_lat_tibia_r.femur_lat_r.torque.X	femur_lat_tibia_r.femur_lat_r.torque.Y	femur_lat_tibia_r.femur_lat_r.torque.Z	aACL_R	pACL_R	aPCL_R	pPCL_R	aMCL_R	mMCL_R	pMCL_R	aLCL_R	mLCL_R	pLCL_R	aPCL_L	pPCL_L	aMCL_L	aLCL_L
      0.10637386	      6.86647591	     11.47407544	     12.37273850	      5.23363638	      5.99587450	      6.64350108	    116.96214866	    169.91545498	    231.54178300	    367.60294648	    126.08642803	     11.46212745	      8.10024059	      0.00000000	      4.88320628	      8.62100798	      5.04686244	      0.00000000	    100.69665153	      7.41711943	     11.29891271	      8.52844498	     33.36344727	     25.15941948	      7.09552429	      4.61525602	      3.76592039	     39.11701752	      0.00000000	      0.00000000	      0.00000000	     20.37029893	      1.02919888	      0.00000000	      0.56084824	      2.81069210	      0.27985712	     30.54919810	      2.45652783	      4.02911147	      8.14261691	     17.40140895	      5.47375438	      6.86647591	     11.47407544	     12.37273850	      5.23363638	      5.99587450	      6.64350108	      0.00000000	      8.65597360	     14.92705572	     14.42311322	      2.98198927	     11.46212745	      8.10024059	      0.00000000	      4.88320628	      8.62100798	      6.92897150	      0.00000000	      3.09451088	      7.41711943	     11.29891271	      8.52844498	     33.36344727	     25.15941948	      7.09552429	      4.61525602	      3.76592039	     23.76178896	      0.00000000	      0.00000000	      0.00000000	     15.58838786	      8.18048812	     57.97024618	     57.94107502	      8.08068045	      7.48678688	     16.87062483	      9.54768576	     21.88247437	      3.88287231	     11.37832932	      3.84984117	     49.29530818	     49.29530818	     18.73661450	     18.73661450	     35.65005398	     35.65005398	     66.79923396	    293.94670144	     45.00237881	    -25.62540828	      1.74930814	     26.42708900	    -66.79923396	   -293.94670144	    -45.00237881	      9.08861996	     -2.33316499	      1.93291376	    -34.68592071	     68.37894213	      7.08620164	     -1.26625933	      0.83590933	    -14.19135268	     34.68592071	    -68.37894213	     -7.08620164	     -1.28768037	     -0.82556279	      1.59035152	    -87.47402724	   -492.12910209	    108.72721508	    -11.57623963	      2.17757445	      0.57071083	     87.47402724	    492.12910209	   -108.72721508	     54.25009482	     -1.33005153	     37.59769679	    -34.80953928	   -127.82501993	    -31.93192219	      4.37231958	     -1.21285529	      0.08571013	     34.80953928	    127.82501993	     31.93192219	    -16.28888154	      0.82705713	     14.44910826	      8.59371570	    -11.18187875	      0.00000000	     55.17770554	      0.00000000	      0.00000000	    -38.25389227	      0.00000000	      0.00000000	      0.00000000	      0.00000000	      0.00000000	      0.00000001	      0.00000000
      0.10714463	      7.71656300	     11.41453430	     12.30905712	      5.20732704	      5.96685993	      6.61632118	    116.63211800	    169.60845286	    230.00245704	    366.22896824	    126.18641110	     11.40171409	      8.05988495	      0.00000000	      4.87018117	      8.57494059	      5.04779755	      0.00000000	    100.72269151	      7.37885989	     11.23959169	      8.48309567	     33.25143978	     25.03191036	      7.08107700	      4.59693623	      3.92458125	     38.96698125	      0.00000000	      0.00000000	      0.00000000	     21.67375532	      0.97315801	      0.00000000	      0.00000000	      2.49637533	      0.10524485	     30.37869759	      2.66637145	      4.11761148	     10.31683410	     17.33718698	      5.45055091	      7.71656300	     11.41453430	     12.30905712	      5.20732704	      5.96685993	      6.61632118	      0.00000000	      8.60866490	     14.92245940	     14.34903767	      2.96706604	     11.40171409	      8.05988495	      0.00000000	      4.87018117	      8.57494059	      6.90191829	      0.00000000	      3.07876836	      7.37885989	     11.23959169	      8.48309567	     33.25143978	     25.03191036	      7.08107700	      4.59693623	      3.92458125	     23.64964795	      0.00000000	      0.00000000	      0.00000000	     15.88780302	      8.29108449	     58.02556061	     57.85968225	      7.99791886	      7.39847334	     16.85102730	      9.51596443	     21.84987879	      3.86345573	     11.47057691	      3.88143363	     49.04698926	     49.04698926	     18.63593079	     18.63593079	     35.55721204	     35.55721204	     64.25793065	    292.96640436	     44.61673400	    -25.42628038	      1.67535147	     25.33175687	    -64.25793065	   -292.96640436	    -44.61673400	      9.02463909	     -2.25272891	      2.08144912	    -34.62739216	     69.60781393	      7.98299479	     -1.60775748	      0.82740880	    -14.17139357	     34.62739216	    -69.60781393	     -7.98299479	     -1.28858085	     -0.82792834	      1.61263815	    -91.61007558	   -493.39577924	    108.34473044	    -11.58678172	      2.25471728	      0.50006829	     91.61007558	    493.39577924	   -108.34473044	     54.10048279	     -1.40452606	     39.31879611	    -32.67744691	   -119.10303600	    -29.90286408	      4.07140163	     -1.14278050	      0.10029387	     32.67744691	    119.10303600	     29.90286408	    -15.23619339	      0.77896478	     13.54951722	      7.95694364	    -11.68449173	      0.00000000	     56.59037000	      0.00000000	      0.00000000	    -38.48725730	      0.00000000	      0.00000000	      0.00000000	      0.00000000	      0.00000000	      0.00000001	      0.00000000
      0.10798872	      8.50908288	     11.35001024	     12.23992059	      5.17883172	      5.93543835	      6.58626470	    116.21220135	    169.25223080	    228.08450039	    364.33590704	    126.23869385	     11.33628978	      8.01617464	      0.00000000	      4.85489233	      8.52492752	      5.04831677	      2.17161140	    100.67383127	      7.33734445	     11.17533760	      8.43398237	     33.13016924	     24.89384630	      7.06185486	      4.57708448	      4.08795911	     38.79292141	      0.00000000	      0.00000000	      0.00000000	     23.22235747	      0.92358702	      0.00000000	      0.00000000	      2.15804267	      0.00000000	     30.20197446	      2.91535400	      4.23527952	      0.00000000	     17.26783920	      5.42569708	      8.50908288	     11.35001024	     12.23992059	      5.17883172	      5.93543835	      6.58626470	      0.00000000	      8.55743181	     14.91547247	     14.26881396	      2.95090258	     11.33628978	      8.01617464	      0.00000000	      4.85489233	      8.52492752	      6.87250077	      2.17161140	      3.06171857	      7.33734445	     11.17533760	      8.43398237	     33.13016924	     24.89384630	      7.06185486	      4.57708448	      4.08795911	     23.52705867	      0.00000000	      0.00000000	      0.00000000	     16.20117941	      8.40681419	     58.07345633	     57.76916091	      7.90909731	      7.30363951	     16.82715225	      9.48074971	     21.81309502	      3.84241640	     11.56482575	      3.91214768	     48.77804002	     48.77804002	     18.52689299	     18.52689299	     35.45670154	     35.45670154	     66.04783246	    294.69347192	     43.95966312	    -25.19127520	      1.73972628	     26.06177025	    -66.04783246	   -294.69347192	    -43.95966312	      9.03368816	     -2.31793784	      2.09060141	    -34.56096727	     70.39148797	      9.36458598	     -2.16883226	      0.82041032	    -14.15174465	     34.56096727	    -70.39148797	     -9.36458598	     -1.25648077	     -0.83700976	      1.63504906	    -95.02087043	   -495.44160425	    108.68323001	    -11.64186757	      2.33067625	      0.47945675	     95.02087043	    495.44160425	   -108.68323001	     54.27137474	     -1.46723723	     40.72723623	    -30.96254242	   -111.81405520	    -28.10051062	      3.81415316	     -1.08471667	      0.11350423	     30.96254242	    111.81405520	     28.10051062	    -14.31042267	      0.73977506	     12.82435714	      7.05535776	    -12.40000728	      0.00000000	     59.08466850	      0.00000000	      0.00000000	    -38.64177372	      0.00000000	      0.00000000	      0.00000000	      0.00000000	      0.00000000	      0.00000001	      0.00000000
      0.10883282	      9.18456683	     11.28619618	     12.17142708	      5.15066404	      5.90438192	      6.55594881	    115.75655470	    168.90486741	    225.96937668	    362.30426488	    126.28365773	     11.27162672	      7.97296523	      0.00000000	      4.83864532	      8.47537425	      5.04924589	      3.07048522	    100.59880038	      7.29623588	     11.11181963	      8.38543835	     33.01033785	     24.75741054	      7.03966949	      4.55745202	      4.24130133	     38.62857351	      0.00000000	      0.00000000	      0.00000000	     24.90358611	      0.88709124	      0.00000000	      0.00000000	      1.82778789	      0.00000000	     30.02815792	      3.18415672	      4.37310080	      4.32578217	     17.29386898	      5.40104265	      9.18456683	     11.28619618	     12.17142708	      5.15066404	      5.90438192	      6.55594881	      0.00000000	      8.50679444	     14.90648017	     14.18951948	      2.93492466	     11.27162672	      7.97296523	      0.00000000	      4.83864532	      8.47537425	      6.84330590	      3.07048522	      3.04486559	      7.29623588	     11.11181963	      8.38543835	     33.01033785	     24.75741054	      7.03966949	      4.55745202	      4.24130133	     23.40475279	      0.00000000	      0.00000000	      0.00000000	     16.50006033	      8.51713425	     58.10865629	     57.67724699	      7.82224463	      7.21089489	     16.80083902	      9.44506987	     21.77519713	      3.82161032	     11.65139983	      3.93859821	     48.51218518	     48.51218518	     18.41912112	     18.41912112	     35.35739352	     35.35739352	     64.00802496	    296.68230336	     42.97409545	    -24.82391762	      1.67346393	     25.16097056	    -64.00802496	   -296.68230336	    -42.97409545	      9.03651178	     -2.24079140	      2.27036158	    -32.69604956	     71.37838564	      9.97442007	     -2.39295404	      0.77749159	    -13.36871021	     32.69604956	    -71.37838564	     -9.97442007	     -1.26592597	     -0.80668808	      1.58387227	   -100.45002403	   -498.77066880	    108.84229021	    -11.70053771	      2.43854099	      0.39651070	    100.45002403	    498.77066880	   -108.84229021	     54.38028730	     -1.56751116	     42.98392527	    -29.37635191	   -105.89836703	    -26.30823914	      3.59299116	     -1.02991253	      0.13406428	     29.37635191	    105.89836703	     26.30823914	    -13.42105845	      0.70374015	     12.15310873	      6.33414754	    -12.88219666	     26.89290647	     60.73582686	      0.00000000	      0.00000000	    -39.29385623	      0.00000000	      0.00000000	      0.00000000	      0.00000000	      0.00000000	      0.00000001	      0.00000000
